# xmcd CD database file
# Copyright (C) 1993-1996 Ti Kan
#
# Track frame offsets:
# 150
# 10840
# 22818
# 32208
# 43970
# 55363
# 68080
# 80410
# 91745
# 102075
# 116078
# 127163
# 139285
#
# Disc length: 2052 seconds
#
# Revision: 0
# Processed by: cddbd v1.4b41PL1 Copyright (c) Steve Scherf et al.
# Submitted via: inCDius 1.1b5
#
DISCID=ae08020d
DTITLE=Roy Drusky - Songs Of Love And Life (American Essentials)
DYEAR=1900
DGENRE=
TTITLE0=Such A Fool
TTITLE1=Another
TTITLE2=Peel Me A 'Nanner
TTITLE3=Yes Mr. Peters
TTITLE4=Husbands And Wives
TTITLE5=Tip Of My Fingers
TTITLE6=If The Whole World Stopped Lovin'
TTITLE7=Make The World Go Away
TTITLE8=All My Hard Times
TTITLE9=Jody And The Kid
TTITLE10=(From Now On All My Friends Are Gonna Be) Strangers
TTITLE11=Long Long Texas Road
TTITLE12=She Thinks I Still Care
EXTD=
EXTT0=
EXTT1=
EXTT2=
EXTT3=
EXTT4=
EXTT5=
EXTT6=
EXTT7=
EXTT8=
EXTT9=
EXTT10=
EXTT11=
EXTT12=
PLAYORDER=
